<?xml version="1.0" encoding="UTF-8" standalone="no"?>
<!-- Generator: Adobe Illustrator 24.1.2, SVG Export Plug-In  -->

<svg
   version="1.1"
   x="0px"
   y="0px"
   width="248.87px"
   height="80.12px"
   viewBox="0 0 248.87 80.12"
   style="overflow:visible;enable-background:new 0 0 248.87 80.12;"
   xml:space="preserve"
   id="svg31"
   xmlns="http://www.w3.org/2000/svg"
   xmlns:svg="http://www.w3.org/2000/svg">
<style
   type="text/css"
   id="style2">
	.st0{fill:#FFFFFF;stroke:#000000;stroke-width:0.6435;stroke-linecap:square;stroke-miterlimit:14.1732;}
</style>
<defs
   id="defs4">
</defs>
<g
   id="g29">
	<path
   id="path66_2_"
   d="M213.38,26.45c1.03-0.28,1.98-1.07,2.45-2.05l0.37-0.77l0.45,1.56c0.25,0.86,0.45,1.95,0.46,2.43   c0.01,0.48,0.02,0.93,0.04,1c0.06,0.39,1-0.51,1.38-1.33c0.35-0.74,0.39-1.15,0.21-1.85l-0.23-0.91l0.43,0.35   c1.77,1.45,3.62,2.13,5.77,2.13c1.14,0,1.19-0.03,0.65-0.3c-0.58-0.3-1.54-1.57-1.4-1.85c0.04-0.08,0.93,0.26,1.97,0.76   c1.74,0.84,2.01,0.91,3.14,0.81c1.69-0.15,7.15-2.23,9.69-3.7c2.17-1.26,5.43-3.58,5.35-3.82c-0.02-0.08-0.37-0.12-0.75-0.11   c-0.41,0.02-1.19-0.21-1.87-0.54l-1.16-0.57l1.27,0.17c2.57,0.34,3.94-0.14,5.28-1.86c2.28-2.91,2.61-5.62,0.93-7.54   c-1.19-1.36-3.19-1.72-5.62-1.01c-1.87,0.54-3.01,1.46-3.65,2.91c-0.29,0.67-0.56,1.52-0.58,1.9c-0.02,0.38-0.11,0.71-0.19,0.73   c-0.26,0.09-0.31-1.68-0.08-2.49c0.13-0.44,0.17-0.84,0.09-0.88c-0.08-0.04-0.99,0.38-2.01,0.93c-1.03,0.55-3.1,1.55-4.59,2.22   c-4.89,2.2-5.26,2.4-6.18,3.32c-0.5,0.5-1.14,1.35-1.42,1.89c-0.28,0.54-0.57,0.95-0.66,0.91c-0.16-0.08,0.02-1.4,0.32-2.3   c0.16-0.46,0-0.42-1.27,0.37c-0.79,0.49-1.94,1.46-2.54,2.15l-1.09,1.25l-0.06-1.09c-0.06-1.14-0.57-2.15-1.25-2.48   c-0.4-0.19-0.4-0.19-0.34,0.63c0.06,0.86-0.33,3.95-0.52,4.02c-0.06,0.02-0.24-0.23-0.4-0.56c-0.55-1.12-2.37-2.54-2.61-2.03   c-0.06,0.11,0.03,0.26,0.18,0.33c0.27,0.13,0.72,1.55,0.8,2.48c0.03,0.45,0.21,0.46,2.61,0.29c6.48-0.47,11.94-1.81,18.6-4.56   c1.21-0.5,1.9-0.71,1.55-0.48c-5.82,3.87-13.37,6.22-20.49,6.38c-1.98,0.04-2.27,0.11-2.33,0.52c-0.14,1.13-0.58,2.08-1.12,2.42   C212.26,26.68,212.36,26.73,213.38,26.45L213.38,26.45z" />
	<path
   id="path79-6_2_"
   class="st0"
   d="M158.55,17.75l1.84,8.68c-0.82,0.57-1.57,1.22-2.25,1.95l-8.34-3.03l5.93,6.6   c-0.42,0.9-0.75,1.85-0.98,2.82l-8.73,1.55l8.43,2.75c0.04,0.5,0.11,0.99,0.2,1.48c0.1,0.49,0.23,0.97,0.38,1.44l-6.79,5.71   l8.68-1.84c0.57,0.82,1.22,1.57,1.95,2.25l-3.03,8.34l6.6-5.93c0.9,0.42,1.85,0.75,2.82,0.97l1.55,8.73l2.75-8.43   c0.5-0.04,0.99-0.11,1.48-0.2c0.49-0.1,0.97-0.23,1.44-0.38l5.71,6.79l-1.84-8.68c0.82-0.57,1.57-1.22,2.25-1.95l8.34,3.03   l-5.93-6.6c0.42-0.9,0.75-1.85,0.98-2.82l8.73-1.55l-8.43-2.75c-0.04-0.5-0.11-0.99-0.2-1.48c-0.1-0.49-0.23-0.97-0.38-1.44   l6.79-5.71l-8.68,1.84c-0.57-0.82-1.22-1.57-1.95-2.25l3.03-8.34l-6.6,5.93c-0.9-0.42-1.85-0.75-2.82-0.98l-1.55-8.73l-2.75,8.43   c-0.5,0.04-0.99,0.11-1.48,0.2c-0.49,0.1-0.97,0.23-1.44,0.38L158.55,17.75z" />
	<path
   id="path81-7_2_"
   d="M73.24,46.47c-0.05,0.47-0.47,1.32-1.27,2.54c-0.76,1.23-1.85,2.62-3.28,4.17   c-1.39,1.56-2.93,3.04-4.62,4.45c-1.65,1.37-3.52,2.49-5.63,3.34c-2.11,0.85-4.12,1.18-6.04,0.98c-4.74-0.49-8.27-3.9-10.58-10.24   c-0.31-0.82-0.23-3.51,0.24-8.05c0.84-8.19,1.8-13.61,2.87-16.27c1.35-3.5,4.09-6.41,8.2-8.71c4.12-2.35,7.91-3.34,11.35-2.99   c1.8,0.19,3.39,0.94,4.75,2.27c1.41,1.29,2.04,2.65,1.9,4.06c-0.05,0.51-0.37,0.73-0.96,0.67c-0.43-0.05-0.87-0.23-1.31-0.55   c-0.44-0.32-0.76-0.71-0.95-1.17c-0.3-0.9-0.87-1.4-1.69-1.48c-2.04-0.21-4.58,0.22-7.62,1.29c-3,1.08-5.35,2.38-7.05,3.9   c-1.44,1.28-2.64,3.35-3.61,6.22c-0.97,2.87-1.76,7.28-2.37,13.23c-0.29,2.82-0.16,5.15,0.41,6.99c0.56,1.84,1.49,3.38,2.79,4.62   c1.3,1.24,2.69,1.94,4.18,2.09c1.02,0.1,2.49-0.18,4.42-0.85c1.93-0.67,3.31-1.38,4.14-2.13l3.31-2.69c1.03-0.8,2.13-1.86,3.3-3.16   c1.21-1.34,2.17-2.41,2.88-3.21c0.75-0.79,1.35-1.17,1.78-1.12C73.2,44.74,73.36,45.33,73.24,46.47L73.24,46.47z" />
	<path
   id="path83-5_2_"
   d="M74.18,60.25c0-0.59,0.41-1.48,1.23-2.66c0.96-2.88,2.93-4.98,3.76-7.28c0.74-1.97,1.39-3.29,1.94-3.96   c0.55-0.63,1.16-1.7,1.82-3.2c0.66-1.5,1.95-4.77,3.86-9.82c1.21-3.15,2.89-6.96,5.04-11.42c2.15-4.46,3.48-6.86,3.99-7.22   c0.47-0.28,0.79-0.42,0.94-0.42c0.28,0,0.67,0.17,1.18,0.53c0.43,0.31,1.29,2.54,2.56,6.67c1.31,4.13,1.97,6.79,1.98,7.97   c0.04,0.79,0.42,2.58,1.14,5.37c0.72,2.75,1.22,4.94,1.5,6.55c0.24,1.61,0.86,4.17,1.86,7.67c1.04,3.46,1.55,5.61,1.56,6.43   c0,0.83-0.27,1.24-0.82,1.24c-0.43,0-1.04-0.21-1.83-0.64c-0.36-0.2-0.65-0.41-0.89-0.65c-0.24-0.23-0.43-0.49-0.59-0.77   c-0.12-0.28-0.26-0.71-0.42-1.3c-0.16-0.59-0.3-1.16-0.42-1.71c-0.12-0.55-0.32-1.44-0.6-2.66c-0.24-1.22-0.5-2.4-0.78-3.54   l-1.14-4.66l-2.89,0.36c-2.13,0.32-4.47,0.59-7.03,0.79L87,42.31l-1.7,3.25c-3.17,5.96-5.3,10.28-6.39,12.96   c-0.9,2.13-1.86,3.2-2.88,3.2c-0.43,0-0.85-0.11-1.24-0.35C74.38,61.13,74.19,60.76,74.18,60.25L74.18,60.25z M99.79,35.82   c0-1.06-0.47-3.62-1.39-7.67c-0.88-4.09-1.54-6.14-1.97-6.14c-0.31,0-1.33,1.76-3.05,5.27c-1.68,3.47-3.05,6.63-4.1,9.46l-0.7,1.83   l4.66-0.37c2.87-0.25,4.68-0.49,5.43-0.73C99.42,37.2,99.8,36.65,99.79,35.82L99.79,35.82z" />
	<path
   id="path85-3_2_"
   d="M111.86,19.81c0.03-0.67,1-1.96,2.88-3.86c1.88-1.91,3.06-2.85,3.53-2.82c1.49,0.08,4.74,0.58,9.74,1.49   c5,0.91,7.98,1.55,8.94,1.92c2.59,0.89,3.81,2.76,3.65,5.59c-0.08,1.34-0.48,2.69-1.23,4.07c-0.71,1.34-1.48,2.46-2.32,3.36   c-2.19,2.6-4.55,4.92-6.92,6.3c-2.32,1.33-4.37,2.4-6.15,3.21c-1.46,0.71-2.19,1.16-2.21,1.36c0,0.08,0.71,0.41,2.13,1.01   c1.47,0.56,3.22,1.3,5.26,2.24c2.04,0.94,3.6,1.84,4.7,2.69c2.02,1.5,4.42,2.66,5.74,4.22c1.19,1.33,1.77,2.27,1.74,2.82   c-0.06,0.98-0.44,1.45-1.14,1.42c-0.63-0.03-1.61-0.44-2.95-1.23c-1.3-0.82-3.09-1.93-5.38-3.32c-2.29-1.43-4.55-2.66-6.78-3.69   l-4.5-2.08l-0.15,6.91c-0.01,1.02-0.08,2.5-0.19,4.43c-0.06,0.94-0.19,1.61-0.41,1.99c-0.22,0.42-0.67,0.61-1.33,0.58   c-1.49-0.08-2.11-2.52-1.84-7.32c0.42-14,0.3-9.36,0.14-20.52c-0.03-3.59-0.15-6.08-0.35-7.47c-0.16-1.43-0.45-2.15-0.88-2.18   c-0.12,0-0.36,0.12-0.73,0.37c-0.37,0.25-0.81,0.37-1.32,0.34c-0.47-0.02-0.88-0.21-1.21-0.54   C111.98,20.74,111.83,20.32,111.86,19.81L111.86,19.81z M137.14,21.51c0.01-0.16-0.04-0.28-0.16-0.36c-0.11-0.12-0.5-0.3-1.15-0.54   c-0.66-0.27-1.64-0.64-2.96-1.11c-2.63-0.9-5.32-1.42-8.08-1.57l-4.25-0.24l0.24,3.21c0.07,0.79,0.16,2.47,0.25,5.04   c0.1,2.53,0.19,4.78,0.28,6.76c0.09,1.94,0.17,2.91,0.25,2.91c0.55,0.03,2.04-0.54,4.47-1.7c2.43-1.17,4.14-2.16,5.13-2.97   c1.07-0.85,2.32-2.41,3.75-4.7C136.35,23.95,137.09,22.37,137.14,21.51L137.14,21.51z" />
	<path
   id="path87-5_2_"
   d="M207.84,21.72c-0.89,0.19-1.8,0.37-2.62,0.79c-1,0.52-1.99,1.09-2.83,1.84   c-1.21,0.99-2.38,2.05-3.36,3.28c-1.25,1.6-2.48,3.25-3.25,5.14c-0.25,0.52-0.32,1.1-0.48,1.65c-0.04,0.49-0.14,0.97-0.14,1.46   c0.12,0.27,0.07,0.58,0.25,0.83c0.4,0.98,1.16,1.75,1.82,2.55c1.14,1.09,2.3,2.15,3.49,3.18c1.29,0.83,2.55,1.7,3.93,2.37   c2.52,1.3,5.24,2.17,7.9,3.14c0.68,0.22,1.36,0.47,1.99,0.82c0.94,0.44,1.85,0.92,2.65,1.59c0.3,0.28,0.33,0.7,0.51,1.05   c0.14,0.65,0.1,1.33,0.15,2c-0.07,0.62,0.01,1.26-0.18,1.86c-0.08,0.42-0.24,0.83-0.47,1.19c-0.3,0.17-0.4,0.52-0.65,0.74   c-1.1,0.96-2.27,1.87-3.53,2.62c-0.67,0.24-1.34,0.5-2.05,0.59c-1.51,0.31-3.06,0.28-4.59,0.34l-3.26-0.07   c-0.35-0.07-0.76-0.07-1.05-0.32l-0.1-0.04c-0.19-0.23-0.5-0.35-0.63-0.64c-0.3-0.64-0.73-1.25-0.79-1.97   c-0.09-0.35-0.01-0.75,0.26-1.01c0.25-0.38,0.55-0.73,0.85-1.07c0.37-0.53,0.54-1.17,0.58-1.8l-0.02,0.02   c-0.07-0.38,0.01-0.84-0.3-1.14l-0.38-0.3l0,0l-0.25-0.11L201,52.27l-0.1-0.02c-0.56,0.07-1.15,0.11-1.65,0.42   c-0.44,0.38-1.03,0.67-1.21,1.28c-0.23,0.55-0.56,1.09-0.55,1.7c-0.17,1.21-0.05,2.42,0.03,3.63c0.21,0.57,0.31,1.21,0.74,1.68   c0.44,0.71,1.04,1.3,1.61,1.92c0.69,0.57,1.49,1.02,2.37,1.2c1.13,0.3,2.29,0.31,3.45,0.37c2.48-0.33,4.99-0.52,7.41-1.17   c1.52-0.38,3.05-0.84,4.39-1.67c0.6-0.41,1.1-0.94,1.62-1.44c0.69-0.87,1.31-1.8,1.7-2.85c0.38-0.78,0.53-1.65,0.77-2.48   c0.08-0.46,0.26-0.9,0.23-1.38c0-0.51,0.16-1.01,0.03-1.52c-0.12-0.77-0.25-1.54-0.52-2.27c-0.34-0.44-0.49-0.98-0.85-1.41   c-0.47-0.77-1.19-1.34-1.86-1.94c-1.31-0.97-2.8-1.69-4.29-2.34c-2.68-0.88-5.34-1.8-7.99-2.76l-3.18-1.47   c-0.85-0.59-1.8-1.08-2.47-1.9c-0.23-0.29-0.54-0.52-0.64-0.9c-0.14-0.38-0.32-0.8-0.18-1.22c0.12-0.32-0.06-0.68,0.11-0.99   c0.08-0.86,0.39-1.68,0.78-2.45c0.25-0.65,0.7-1.2,1.05-1.8c0.53-0.64,1.03-1.31,1.65-1.87c0.86-0.89,1.84-1.64,2.75-2.48   c0.99-0.68,1.96-1.47,3.15-1.75c1.26-0.4,2.6-0.37,3.91-0.47c-0.02-2.33,0,0-0.02-2.33C211.4,21.57,209.45,21.45,207.84,21.72   L207.84,21.72z" />
	<path
   id="path89-6_2_"
   d="M11.79,29.24c0.02-0.14,0.06-0.17,0.09-0.08c0.03,0.08,0.33,0.15,0.65,0.17c0.51,0.03,0.74-0.03,1.9-0.57   c1.94-0.83,3.2-2.87,2.98-4.85c-0.04-0.27,0.07-0.5,0.12-0.52c1.93,0.17,3.69,2.05,4.66,1.01c0.31-0.4,0.64-2.1,0.61-3.09   c-0.02-0.39,0.03-0.74,0.1-0.77c0.07-0.03,1.29-0.01,2.71,0.05c3.66,0.16,4.09,0.4,4.42,2.53c0.34,2.2,0.26,6.76-0.17,9.93   c-0.26,1.89-0.27,3.05-0.04,3.55c0.09,0.2,0.04,0.34-0.22,0.61c-1.29,1.36-6.44,3.67-8.77,3.93c-0.98,0.11-1.08,0.03-2.01-1.76   c-1.08-2.05-1.67-2.89-3.81-5.41c-0.98-1.16-2.01-2.4-2.27-2.75C12.19,30.44,11.75,29.54,11.79,29.24L11.79,29.24z" />
	<path
   id="path91-2_2_"
   d="M25.67,77.65c0.16-0.18,1.08-0.86,2.04-1.51c0.97-0.65,3.3-2.25,5.2-3.55l3.44-2.37l1.15,1.21   c0.63,0.67,0.94,1.49,0.9,1.53c-0.57,0.53-10.55,7.06-10.9,7.15c-0.31,0.08-0.76-0.2-1.23-0.74   C25.37,78.34,25.28,78.08,25.67,77.65L25.67,77.65z" />
	<path
   id="path93-9_2_"
   d="M21.28,56.07c0.06-0.5,0.34-1.29,0.61-1.75c0.44-0.75,0.67-0.89,2.16-1.37c2.96-0.95,6.41-0.41,8.54,1.34   l0.85,0.7c0.08,0.88-0.09,1.68-0.3,2.52l-0.62-0.62C29.8,54.66,24.07,54.6,22,56.58C21.21,57.42,21.11,57.36,21.28,56.07   L21.28,56.07z" />
	<path
   id="path95-1_2_"
   d="M21.61,59.65c0.5-1.78,2.58-2.48,3.91-2.72c2.85-0.53,7.43,1.48,7.89,3.16c0.06,0.35,0.29,2.25,0.04,2.79   c-0.62,1.36,0.33,2.88,1.8,5.2c0.19,0.3-1.59,1.29-4.36,3.21c-1.91,1.32-4.05,2.83-4.76,3.34l-1.65,1.1l-0.56-0.76   c-0.46-0.63-0.24-1.31-0.41-3.19c-0.25-2.78-0.56-4.46-1.34-7.45C21.61,62.26,21.3,60.74,21.61,59.65L21.61,59.65z" />
	<path
   id="path97-2_2_"
   d="M22.22,50.58c-0.04-0.39-0.32-1.29-0.61-2c-0.3-0.71-0.47-1.4-0.38-1.53c0.09-0.13,0.72-0.27,1.41-0.3   c1.38-0.08,7.5-2.55,9-3.64l0.82-0.59l0.22,1.11c0.12,0.61,0.24,1.91,0.27,2.89c0.03,0.98,0.25,2.56,0.5,3.51   c0.86,3.27,0.9,3.11-0.62,2.21c-2.5-1.5-6.28-1.84-8.81-0.79C22.47,52.1,22.37,52.05,22.22,50.58L22.22,50.58z" />
	<path
   id="path99-7_2_"
   d="M31.05,37.93c-0.09-0.17-0.19-0.27-0.23-0.23c-1.35,1.49-2.42,2.15-5.44,3.34   c-2.65,1.05-4.01,1.38-5.16,1.25c-0.37-0.04-0.63-0.01-0.61,0.06c0.03,0.07,0.39,0.75,0.81,1.51c0.42,0.76,0.77,1.39,0.77,1.41   c0.04,0.1,1.05,0.09,1.81-0.02c2.04-0.3,5.13-1.52,7.06-2.79c0.98-0.65,1.29-0.96,1.67-1.66l0.27-0.5l-0.4-1.03   C31.39,38.7,31.14,38.09,31.05,37.93L31.05,37.93z" />
	<path
   id="path101-0_2_"
   d="M3.56,17.63c0.47-0.03,1.26-0.41,1.34-0.64c0.08-0.24-0.47-1.47-0.81-1.81c-0.14-0.13-0.59-0.39-1-0.57   c-0.41-0.18-0.73-0.36-0.72-0.41C2.44,14.03,4,14.69,4.6,15.15c0.81,0.61,1.36,0.77,2.1,0.61c0.86-0.19,2-0.19,1.73,0   c-0.3,0.22-0.34,0.54-0.09,0.84c0.31,0.38,0.62,0.25,0.61-0.25l-0.01-0.42l0.37,0.44c0.3,0.35,0.36,0.48,0.31,0.67   c-0.1,0.37,0.82,2.02,1.42,2.54c0.91,0.8,1.29,0.92,2.93,0.93c0.84,0.01,1.54,0.04,1.56,0.09c0.02,0.04,0.06,0.36,0.09,0.7   c0.04,0.48,0,0.65-0.18,0.73c-0.13,0.06-0.26,0.21-0.3,0.34c-0.12,0.45,0.63,0.53,0.8,0.08c0.11-0.3,0.59,0.48,0.65,1.06   c0.09,0.83-0.01,1.31-0.29,1.36c-0.14,0.03-0.37,0.23-0.53,0.46c-0.21,0.32-0.25,0.49-0.14,0.72c0.16,0.34,0.03,0.72-0.34,1.01   c-0.14,0.1-0.53,0.42-0.88,0.7c-1.08,0.88-2.6,1.21-3.16,0.68c-0.31-0.28-0.29-0.41,0.14-1.03c0.13-0.2,0.11-0.25-0.54-1.2   c-0.38-0.55-0.67-1.03-0.66-1.06c0.01-0.03,0.53-0.11,1.11-0.26c1.32-0.35,1.48-0.35,1.53-0.7c0.03-0.23-0.26-0.84-0.42-0.92   c-0.23-0.11-1.06,0.23-0.98,0.4c0.03,0.06-0.29,0.27-0.75,0.48l-0.8,0.37l-1.45-1.57c-0.97-1.05-1.8-1.96-1.83-2.02   c-0.04-0.08,0.28-0.27,0.87-0.55c1.05-0.48,1.15-0.62,1.04-1.43c-0.06-0.39-0.12-0.54-0.28-0.63c-0.12-0.07-0.59-0.43-1.06-0.8   c-0.84-0.67-1.67-1.13-1.73-0.96c-0.02,0.05,0.14,0.19,0.35,0.31c0.61,0.35,1.75,1.38,1.9,1.72c0.2,0.45-0.01,0.75-0.7,0.99   c-0.88,0.31-1.11,0.34-1.18,0.18c-0.04-0.08-0.3-0.2-0.59-0.27c-0.42-0.09-0.63-0.25-1.11-0.8C3.13,17.56,3.18,17.66,3.56,17.63   L3.56,17.63z M14.36,21.99c0.34,0.09,0.47-0.28,0.26-0.74c-0.19-0.42-0.5-0.48-0.66-0.14C13.83,21.38,14.07,21.91,14.36,21.99   L14.36,21.99z" />
	<path
   id="path103-9_2_"
   d="M15.04,19.67c0.01-0.17,0.21-0.93,0.44-1.68l0.42-1.36l0.49-0.1c1.08-0.23,2.81-0.81,3-1   c0.31-0.32,0.36-0.69,0.27-2.06c-0.07-1.09-0.15-1.43-0.49-2.19c-0.34-0.77-0.46-0.93-0.8-1.12c-0.5-0.27-0.62-0.53-0.59-1.22   c0.07-1.03,0.05-1.07,0.86-1.28l0.41-0.28c0.42-0.28,0.54-0.49,0.72-1.28c0.07-0.29,0.11-0.36,0.13-0.19   c0.01,0.14,0.13,1.85,0.27,3.81c0.27,3.81,0.67,7.33,0.9,7.83c0.08,0.17,0.22,0.33,0.31,0.37c0.12,0.04,0.27,0.37,0.5,1.09   c0.28,0.86,0.33,1.26,0.3,2.4c-0.04,1.48-0.21,2-0.74,2.25c-0.27,0.13-0.52,0.08-1.29-0.24c-0.71-0.36-1.5-0.66-2.14-0.82   c-0.89-0.23-1.18-0.37-1.37-0.64c-0.43-0.77-0.34-1.4,0.1-1.76c0.43-0.24,0.43-0.25,0.08-0.18c-0.33,0.06-1.77,0.08-1.78,0.02   C15.03,20,15.03,19.84,15.04,19.67L15.04,19.67z M19.23,18.09c0.3,0.11,0.38,0.02,0.36-0.44c-0.02-0.46-0.28-0.77-0.56-0.65   C18.71,17.16,18.85,17.95,19.23,18.09L19.23,18.09z M18.94,9.72c0.34,0.13,0.63,0.06,0.65-0.16c0.01-0.07-0.05-0.14-0.13-0.15   c-0.08-0.01-0.16-0.12-0.18-0.25c-0.04-0.29-0.42-0.6-0.63-0.5C18.27,8.83,18.46,9.55,18.94,9.72L18.94,9.72z" />
	<path
   id="path105-3_2_"
   d="M22.89,19.76c-0.01-0.07-0.14-0.54-0.27-1.04c-0.11-0.74-0.38-1.83-0.04-2.29   c0.89-1.15-0.4-0.43,1.85-0.98c0.93-0.22,1.05-0.27,1.35-0.59c0.38-0.41,0.58-1.26,0.6-2.5c0.02-1.12-0.42-2.15-1.23-2.86   c-0.56-0.49-0.65-0.74-0.56-1.48c0.05-0.4,0.12-0.49,0.51-0.67c0.71-0.33,1.22-0.08,1.78,0.88c0.31,0.52,0.45,0.54,0.59,0.78   c0.21,0.39,0.3,0.27,0.38,1.96c0.05,1.07,0.08,2.48,0.08,3.14c0,0.66,0.02,1.5,0.06,1.86c0.06,0.59,0.09,0.66,0.31,0.75   c0.22,0.08,0.26,0.21,0.42,1.23c0.19,1.23,0.29,1.54,0.51,1.57c0.16,0.02,0.37,0.43,0.39,0.74c0.02,0.36-0.18,0.31-0.36-0.09   c-0.12-0.26-0.26-0.39-0.44-0.4c-0.33-0.02-0.7,0.14-0.69,0.31c0.01,0.07-0.43,0.08-0.97,0.01c-0.54-0.06-1.72-0.13-2.62-0.15   C23.65,19.9,22.9,19.82,22.89,19.76L22.89,19.76z M25.43,17.56c0.25-0.08,0.3-0.16,0.26-0.41c-0.08-0.44-0.29-0.68-0.53-0.62   c-0.34,0.08-0.44,0.44-0.23,0.8C25.08,17.61,25.17,17.65,25.43,17.56L25.43,17.56z M25.54,8.85c0.11,0.03,0.28,0.03,0.38-0.01   c0.1-0.05,0.25-0.02,0.33,0.05c0.19,0.18,0.46,0.04,0.44-0.23c-0.01-0.14-0.11-0.24-0.26-0.27c-0.13-0.03-0.25-0.13-0.26-0.22   c-0.02-0.26-0.37-0.47-0.6-0.37C25.13,8,25.11,8.69,25.54,8.85L25.54,8.85z" />
	<path
   id="path107-6_2_"
   d="M25.89,6.25c0.81-0.38,1.4-1,1.65-1.72c0.13-0.35,0.23-1.29,0.24-1.21c0.01,0.08,0.03,1.85,0.04,3.07   l0.02,2.22L27.3,7.76c-0.73-1.15-0.98-1.14-1.5-1.2l-0.45-0.05L25.89,6.25L25.89,6.25z" />
	<path
   id="path109-0_2_"
   d="M0.01,15.36c-0.03-0.16-0.02-0.3,0.02-0.35c0.03-0.05,1.16-0.61,1.3-0.65c0.07-0.02,0.12-0.01,0.39,0.12   c0.17,0.08,0.44,0.19,0.6,0.26c0.57,0.23,0.79,0.36,1,0.56c0.23,0.21,1.03,1.15,1.08,1.26c0.02,0.06-0.02,0.22-0.08,0.29   c-0.15,0.19-0.62,0.32-1.06,0.3c-0.24-0.01-0.97-0.29-1.84-0.71c-0.8-0.38-1-0.49-1.16-0.62C0.13,15.69,0.04,15.53,0.01,15.36   L0.01,15.36z" />
	<path
   id="path111-6_2_"
   d="M4.76,14.81c0.01,0,0.14,0,0.29,0.01c0.15,0.01,0.42,0,0.6-0.01c0.47-0.03,1.03-0.01,1.36,0.05   c0.26,0.06,0.27,0.02-0.14,0.33c-0.15,0.11-0.32,0.23-0.4,0.26C6.36,15.5,6.33,15.5,6.16,15.5c-0.27-0.01-0.61-0.14-0.96-0.36   C4.93,14.97,4.73,14.82,4.76,14.81L4.76,14.81z" />
	<path
   id="path113-2_2_"
   d="M2.4,13.63c0.04-0.01,0.42,0,0.76,0.03c0.45,0.05,0.65,0.11,0.82,0.25c0.13,0.11,0.28,0.29,0.38,0.44   l0.06,0.09l-0.15-0.11c-0.28-0.21-0.57-0.32-1.34-0.54C2.48,13.69,2.37,13.65,2.4,13.63L2.4,13.63z" />
	<path
   id="path115-6_2_"
   d="M15.51,15.74c0.19-0.77,0.04-1.49-0.01-2.39c-0.24-0.98-0.17-1.53-0.36-2.18   c-0.14-0.38-0.17-0.48-0.13-0.5c0.01-0.01,0.08,0,0.15,0.01c0.34-0.13,0.5-0.02,0.93-0.15c1.26-0.34,1.47-0.36,1.71-0.17   c0.16,0.13,0.28,0.3,0.44,0.65c0.28,0.61,0.43,1.24,0.48,1.98c0.06,0.97,0.02,1.7-0.12,2.04c-0.2,0.34-0.71,0.44-0.89,0.52   c-0.07,0.02-0.38,0.1-0.69,0.18c-1.3,0.35-1.56,0.41-1.57,0.37C15.43,16.09,15.46,15.93,15.51,15.74L15.51,15.74z" />
	<path
   id="path117-1_2_"
   d="M15.3,9.41c0.12-0.67,0.05-1.26,0.22-1.78c0.58-1.32,0.3-0.35,0.8-2.1c0.1-0.18,0.09-0.4-0.03-0.91   c-0.04-0.16-0.07-0.35-0.08-0.43c0.19-0.35,0.07-0.13,0.27-0.5c0.03-0.07,0.17-0.31,0.31-0.53c0.13-0.22,0.28-0.46,0.32-0.54   c0.1-0.2,0.12-0.22,0.24-0.27c0.16-0.07,1.43-0.45,1.63-0.49l0.08-0.01l0.09,0.22c0.13,0.31,0.23,0.67,0.25,0.87   c0.02,0.22,0.01,0.33-0.13,1.08c-0.07,0.34-0.16,0.87-0.22,1.17c-0.16,0.9-0.22,1.02-0.58,1.25c-0.11,0.07-0.23,0.14-0.26,0.15   c-0.27,0.08-0.11,0.05-0.47,0.1l-0.12,0.05c-0.45,0.17-0.44,0.3-0.47,0.51c-0.21,1.1-0.08,0.5-0.1,1.94   c-0.03,0.09-0.82,0.37-1.32,0.45c-0.18,0.03-0.51,0.11-0.52,0.09C15.28,9.62,15.28,9.5,15.3,9.41L15.3,9.41z" />
	<path
   id="path119-8_2_"
   d="M22.83,14.95c0.04-0.03,0.08-0.09,0.1-0.11c0.02-0.02,0.03-0.08,0.02-0.15   c-0.02-0.13,0.07-0.29,0.15-0.53c0.21-0.92,0.07-1.89-0.14-2.7c-0.12-0.41-0.16-0.58-0.2-0.89c-0.02-0.15-0.06-0.39-0.09-0.53   c-0.06-0.26-0.06-0.35,0-0.38c0.05-0.02,0.59-0.14,1.17-0.25c0.45-0.09,0.45-0.09,0.57-0.04c0.21,0.08,0.46,0.46,0.73,0.8   c0.14,0.17,0.32,0.54,0.38,0.79c0.15,0.55,0.14,1.95-0.01,2.68c-0.1,0.5-0.33,0.84-0.59,0.97l-0.52,0.17   c-0.09,0.04-0.7,0.17-1.09,0.23c-0.35,0.06-0.54,0.06-0.55,0.03C22.77,15.04,22.79,14.99,22.83,14.95L22.83,14.95z" />
	<path
   id="path121-7_2_"
   d="M22.69,8.16c-0.01-0.31,0.03-0.54,0.14-0.92c0.05-0.16,0.09-0.33,0.09-0.39c0-0.06,0.01-0.16,0.03-0.23   c-0.03-0.49,0.14-0.75,0.36-1.16c0.63-0.51,1.05-1.11,1.24-1.74c0.15-0.38,0.17-0.56,0.11-0.92c-0.05-0.29-0.03-0.39,0.11-0.76   c0.14-0.36,0.39-0.77,0.8-1.32l0.3-0.4l0.47-0.12c0.26-0.07,0.56-0.14,0.68-0.17L27.22,0l0.04,0.2c0.06,0.28,0.11,0.79,0.1,1.06   c-0.01,0.27-0.07,0.56-0.23,1.16c-0.07,0.25-0.21,0.81-0.32,1.23c-0.11,0.43-0.23,0.86-0.28,0.97c-0.16,0.38-0.35,0.52-1.27,0.93   c-0.33,0.14-0.9,0.49-1.08,0.76l-0.1,0.22c-0.07,0.42-0.17,0.61-0.17,0.95c0.03,0.29,0.19,0.91,0.2,1.15   c-1.14,0.19-0.8,0.09-1.46,0.28C22.65,8.62,22.69,8.49,22.69,8.16L22.69,8.16z" />
</g>
</svg>
